<?xml version="1.0" encoding="UTF-8"?>
<svg xmlns="http://www.w3.org/2000/svg" width="336" height="88" viewBox="0 0 336 88" fill="none">
  <g clip-path="url(#clip0_394_275)">
    <path d="M253.444 58.2979H261.248C261.551 59.2819 262.581 60.2658 264.51 60.2658C267.123 60.2658 268.023 58.6432 268.023 56.2437V54.5347H267.85C266.561 56.0365 264.847 57.1413 262.321 57.1413C257.346 57.1413 253.02 53.4644 253.02 46.2747C253.02 39.6891 256.576 34.5535 261.94 34.5535C265.029 34.5535 266.915 35.7964 268.161 37.7643H268.291V35.244H276.009V55.1734C276.009 58.8503 274.719 61.7159 272.79 63.4335C270.774 65.2287 267.902 65.9538 264.64 65.9538C258.505 65.9538 254.223 63.4248 253.444 58.2979ZM268.369 45.8863C268.369 43.0207 267.002 40.7075 264.64 40.7075C262.364 40.7075 260.911 42.7618 260.911 45.8863C260.911 48.9676 262.373 51.1858 264.64 51.1858C266.993 51.1944 268.369 48.9244 268.369 45.8863ZM244.402 39.1712H244.532C246.202 35.9604 248.391 34.7693 251.177 34.7693C251.817 34.7693 252.25 34.8556 252.51 34.9851V42.0454H252.336C247.578 41.1909 244.792 43.4609 244.792 48.631V58.2547H236.685V35.244H244.402V39.1712ZM60 26H75.868C78.8703 26 81.1804 26.725 82.8156 28.0542C84.6585 29.5474 85.6449 31.7743 85.6449 34.424C85.6449 37.5054 84.399 39.4301 81.8293 40.6299V40.7593C85.1776 41.8728 87.1071 44.8678 87.1071 48.5015C87.1071 51.9626 85.7746 54.6642 83.5943 56.2868C81.7514 57.616 79.3548 58.2547 76.1795 58.2547H60V26ZM75.0979 51.1081C77.0274 51.1081 78.4377 49.9515 78.4377 47.811C78.4377 45.5842 76.8976 44.5139 75.0547 44.5139H68.7905V51.0995H75.0979V51.1081ZM74.276 38.6188C75.9891 38.6188 77.235 37.678 77.235 35.7964C77.235 33.958 75.9458 33.0603 74.2327 33.0603H68.7905V38.6188H74.276Z" fill="#F3F2F0"></path>
    <path d="M88.5606 26H96.8753V58.2547H88.5606V26ZM98.4673 46.7839C98.4673 39.5164 103.183 34.5967 110.476 34.5967C117.77 34.5967 122.399 39.5164 122.399 46.7839C122.399 54.1031 117.77 58.9711 110.476 58.9711C103.183 58.9798 98.4673 54.1031 98.4673 46.7839ZM114.162 46.7839C114.162 42.7618 112.873 40.2415 110.39 40.2415C107.907 40.2415 106.704 42.7618 106.704 46.7839C106.704 50.8492 107.907 53.3695 110.39 53.3695C112.873 53.3781 114.162 50.8492 114.162 46.7839ZM123.342 46.7839C123.342 39.5164 128.057 34.5967 135.351 34.5967C142.645 34.5967 147.274 39.5164 147.274 46.7839C147.274 54.1031 142.645 58.9711 135.351 58.9711C128.057 58.9798 123.342 54.1031 123.342 46.7839ZM139.037 46.7839C139.037 42.7618 137.748 40.2415 135.265 40.2415C132.782 40.2415 131.579 42.7618 131.579 46.7839C131.579 50.8492 132.782 53.3695 135.265 53.3695C137.748 53.3781 139.037 50.8492 139.037 46.7839ZM148.857 35.244H156.575V38.7051H156.705C158.245 36.0122 160.347 34.5535 163.652 34.5535C166.568 34.5535 168.757 36.0035 169.873 38.5325H170.003C171.889 35.4943 174.338 34.5535 177.167 34.5535C182.531 34.5535 184.841 38.4893 184.841 43.7889V58.2461H176.734V45.2475C176.734 42.8912 176.007 41.3549 173.948 41.3549C171.932 41.3549 170.903 43.2365 170.903 45.7223V58.2547H162.787V45.2475C162.787 42.8912 162.06 41.3549 160.001 41.3549C157.985 41.3549 156.956 43.2365 156.956 45.7223V58.2547H148.857V35.244ZM194.739 55.2597H194.653V58.2547H186.935V26H195.042V37.6348H195.172C196.712 35.6238 198.771 34.5535 201.73 34.5535C207.518 34.5535 210.867 39.7754 210.867 46.6976C210.867 54.5261 207.224 59.0143 201.22 59.0143C198.728 59.0229 196.158 57.8232 194.739 55.2597ZM202.63 46.6199C202.63 42.8999 201.263 40.5004 198.814 40.5004C196.331 40.5004 194.739 42.8999 194.739 46.6199C194.739 50.2968 196.323 52.7394 198.814 52.7394C201.298 52.7308 202.63 50.3399 202.63 46.6199ZM211.896 46.7062C211.896 39.5164 216.655 34.519 223.559 34.519C226.986 34.519 229.651 35.5892 231.666 37.514C234.323 40.0775 235.525 44.0996 235.439 48.8467H219.96C220.306 51.7123 221.673 53.171 224.122 53.171C225.541 53.171 226.778 52.5323 227.297 50.9873H235.101C233.734 56.2437 229.659 58.9021 223.871 58.9021C216.698 58.8934 211.896 54.06 211.896 46.7062ZM219.96 44.3067H227.332C227.202 41.5275 225.662 40.0688 223.733 40.0688C221.5 40.0688 220.254 41.657 219.96 44.3067Z" fill="#F3F2F0"></path>
  </g>
  <defs>
    <clipPath id="clip0_394_275">
      <rect width="216" height="48" fill="white" transform="translate(60 20)"></rect>
    </clipPath>
  </defs>
</svg>
