<?xml version="1.0" encoding="UTF-8"?>
<svg xmlns="http://www.w3.org/2000/svg" width="335" height="88" viewBox="0 0 335 88" fill="none">
  <path fill-rule="evenodd" clip-rule="evenodd" d="M161.921 36.1663C161.921 40.4384 161.433 53.8652 161.433 53.8652C161.433 56.4284 162.287 57.6491 164.728 57.6491V58.7476H155.208V57.6491C157.649 57.6491 158.991 56.5505 158.991 53.8652L159.846 32.0162C159.113 30.3074 158.381 29.6971 156.55 29.575V28.4765H163.874L171.686 48.8607L179.62 28.4765H186.211V29.4529C184.38 29.4529 183.282 30.3074 183.282 32.3824L184.136 53.499C184.136 56.6726 184.746 57.527 187.31 57.527V58.6255H176.202V57.527C178.399 57.527 179.376 56.7946 179.254 53.499C179.254 53.499 178.765 38.7296 178.643 36.0442L173.273 50.6916C172.54 52.5225 171.808 54.7196 171.32 57.0387L169.611 57.1608C169.122 55.574 168.024 52.6445 168.024 52.6445C168.024 52.6445 163.508 40.3164 161.921 36.1663Z" fill="#F3F2F0"></path>
  <path fill-rule="evenodd" clip-rule="evenodd" d="M152.888 58.8697C152.278 58.7477 151.79 58.7477 151.18 58.7477C150.081 58.7477 148.006 59.358 145.565 59.358C136.166 59.358 129.331 53.7432 129.331 43.368C129.331 34.5796 135.8 27.8662 145.687 27.8662C148.006 27.8662 150.569 28.3545 152.766 29.2089C153.255 28.7206 153.377 28.4765 153.743 28.1103H154.597C154.475 29.6971 153.865 34.8237 153.865 34.8237H153.01C152.4 31.7722 150.813 29.8192 145.809 29.8192C139.828 29.8192 134.335 34.5796 134.335 43.368C134.335 53.2549 139.95 57.6491 146.175 57.6491C150.203 57.6491 152.644 55.3299 154.231 52.5225L155.208 53.0108L152.888 58.8697Z" fill="#F3F2F0"></path>
  <path fill-rule="evenodd" clip-rule="evenodd" d="M125.669 34.0913H124.692C124.57 31.406 123.716 30.5515 121.519 30.5515H117.369V53.1328C117.369 56.9167 118.101 57.6491 120.542 57.6491V58.7476H109.801V57.6491C112.242 57.6491 112.974 56.9167 112.974 53.0108V30.5515H108.824C106.139 30.5515 105.651 31.2839 104.918 34.0913H103.942L104.674 27.6221L105.407 27.7441C105.651 28.4765 106.261 28.4765 107.97 28.4765H121.885C124.448 28.4765 125.058 28.4765 125.669 27.6221H126.523L125.669 34.0913Z" fill="#F3F2F0"></path>
  <path fill-rule="evenodd" clip-rule="evenodd" d="M95.2756 59.48C93.3227 59.48 91.7359 59.2359 90.5152 58.7477C89.4167 58.5035 88.5623 58.0153 88.074 57.7712C87.4637 58.3815 87.0975 59.1138 87.0975 59.1138L86.2431 58.8697L86.8534 51.9122L87.8299 52.0343C88.4402 55.2079 90.5152 57.5271 95.0315 57.5271C98.4492 57.5271 100.768 54.5976 100.768 51.5461C100.768 48.9828 99.7919 47.6401 96.2521 45.0768C95.1536 44.3445 94.055 43.7342 93.2006 43.1238C90.027 41.1709 88.074 38.8517 88.074 35.0678C88.074 30.7957 91.6138 27.8662 96.3742 27.8662C99.0595 27.8662 100.89 28.7206 101.379 28.9648L102.355 27.8662L103.088 27.9883L102.355 34.2134L101.501 33.9693C101.501 31.0398 99.7919 29.8192 96.8624 29.8192C94.1771 29.8192 92.102 31.2839 92.102 33.9693C92.102 36.4105 93.933 37.9973 96.1301 39.462C97.2286 40.1944 98.083 40.8047 99.0595 41.2929C104.064 44.8327 105.285 47.1519 105.285 50.6916C105.285 55.6961 101.379 59.48 95.2756 59.48Z" fill="#F3F2F0"></path>
  <path fill-rule="evenodd" clip-rule="evenodd" d="M78.7974 34.0913H77.6988C77.6988 31.528 76.6003 30.5515 74.2811 30.5515H67.8119V41.9032H71.962C74.1591 41.9032 74.5253 40.8047 74.8914 38.8517H75.8679V46.9077H74.8914C74.6473 44.7106 74.1591 43.8562 71.8399 43.8562H67.8119V53.499C67.8119 57.0388 68.6663 57.527 70.9855 57.527V58.6256H60V57.527C62.6853 57.527 63.1736 56.7946 63.1736 53.499V32.3824C63.1736 30.4295 62.3192 29.453 60 29.453V28.4765H75.0135C77.5768 28.4765 78.1871 28.3544 78.5533 27.5H79.5298L78.7974 34.0913Z" fill="#F3F2F0"></path>
  <path fill-rule="evenodd" clip-rule="evenodd" d="M233.937 35.8001V53.1328C233.937 56.9167 234.791 57.6491 237.11 57.6491V58.7476H220.144V57.6491C221.487 57.6491 222.585 57.1608 222.585 56.3064C222.585 55.6961 222.463 54.7196 222.097 53.7431L220.754 49.593H211.356C211.233 50.2033 209.525 54.9637 209.525 56.1843C209.525 57.2829 210.867 57.6491 211.722 57.6491V58.7476H203.788V57.6491C205.253 57.6491 206.351 57.527 207.328 54.4755L214.651 31.0397C214.163 30.0633 213.675 29.6971 212.698 29.575V28.4765H219.167L226.979 53.0107C227.712 55.574 228.444 56.9167 229.543 57.527C231.251 56.9167 231.74 56.4284 231.74 53.0107V32.3824C230.397 30.6736 230.275 29.4529 227.834 29.4529V28.4765H235.157L247.241 48.9827V33.3589C247.241 30.1853 246.509 29.4529 244.068 29.4529V28.4765H260.18V29.4529C259.203 29.4529 258.349 29.9412 258.349 30.9177C258.349 31.65 258.593 32.3824 258.959 33.2368L263.598 43.1238L268.114 33.481C268.846 32.1383 268.968 31.528 268.968 30.7956C268.968 29.9412 268.358 29.4529 267.137 29.4529V28.4765H274.705V29.4529C272.874 29.4529 271.654 31.1618 270.799 33.2368L264.94 45.3209V53.2549C264.94 56.6726 265.795 57.527 268.114 57.527V58.6255H257.128V57.527C259.448 57.527 260.302 56.6726 260.302 53.2549V46.5415L253.955 33.1148C252.856 30.5515 252.368 29.9412 251.636 29.575C250.171 30.1853 249.805 31.1618 249.805 33.481V55.574C249.805 55.574 249.927 57.2829 250.049 59.3579L248.218 59.48L233.937 35.8001ZM215.994 34.4575L211.966 47.518H220.266L215.994 34.4575Z" fill="#F3F2F0"></path>
  <path fill-rule="evenodd" clip-rule="evenodd" d="M198.173 47.518C198.173 47.518 196.83 47.518 195.976 47.518V53.7431C195.976 56.9167 196.83 57.6491 199.272 57.6491V58.7476H188.164V57.6491C190.483 57.6491 191.338 56.7946 191.338 53.621V33.2368C191.338 30.0633 190.483 29.4529 188.164 29.4529V28.4765H196.464C204.52 28.4765 209.281 30.9177 209.281 37.509C209.403 44.4665 203.666 47.518 198.173 47.518ZM196.708 30.5515H195.976V45.3209H197.319C202.079 45.3209 204.52 43.1238 204.52 37.7531C204.52 32.2604 202.323 30.5515 196.708 30.5515Z" fill="#F3F2F0"></path>
  <path fill-rule="evenodd" clip-rule="evenodd" d="M148.006 52.8887C142.513 52.8887 138.851 48.9827 138.851 43.3679C138.851 37.9972 142.757 33.8472 148.006 33.8472C153.133 33.8472 157.039 37.8752 157.039 43.3679C157.039 48.7386 153.011 52.8887 148.006 52.8887ZM148.006 35.6781C144.222 35.6781 143.001 39.3399 143.001 43.49C143.001 47.3959 144.1 51.3019 148.006 51.3019C151.79 51.3019 152.888 47.3959 152.888 43.3679C152.888 39.462 151.424 35.6781 148.006 35.6781Z" fill="#F3F2F0"></path>
  <path fill-rule="evenodd" clip-rule="evenodd" d="M84.7784 51.1799V50.2034C86.2431 50.2034 86.4873 49.7151 86.4873 49.349C86.4873 48.7387 86.3652 48.3725 86.2431 47.8842C86.2431 47.8842 85.999 46.7857 85.6328 45.9313H80.018L79.4077 47.7622C79.2857 48.2504 79.1636 48.6166 79.1636 49.2269C79.1636 49.8372 79.7739 50.2034 80.6283 50.2034V51.1799H75.0135V50.2034C76.4783 50.2034 76.9665 49.7151 77.5768 48.2504L81.8489 35.3119C81.7269 34.7016 81.2386 34.3354 80.3842 34.3354V33.2369H85.0225C88.8064 44.2224 89.7829 47.0298 89.7829 47.0298C90.5153 49.471 91.2476 50.2034 92.3462 50.2034V51.1799H84.7784ZM82.7034 37.2649L80.5063 44.3445H85.0225L82.7034 37.2649Z" fill="#F3F2F0"></path>
</svg>
