<?xml version="1.0" encoding="UTF-8"?>
<svg xmlns="http://www.w3.org/2000/svg" width="258" height="88" viewBox="0 0 258 88" fill="none">
  <path fill-rule="evenodd" clip-rule="evenodd" d="M144.064 35.7659C141.866 35.7659 140.126 36.2222 138.386 37.2262C138.386 32.2063 138.386 27.5516 138.569 26L127.855 27.9167V28.8294L128.954 29.0119C130.419 29.2857 130.877 30.1071 131.152 32.0238C131.427 35.8571 131.335 56.0278 131.152 59.4048C133.991 60.0437 137.013 60.5 140.034 60.5C148.459 60.5 153.496 55.2976 153.496 47.0833C153.587 40.5119 149.466 35.7659 144.064 35.7659ZM140.401 58.6746C139.76 58.6746 138.936 58.6746 138.478 58.4921C138.295 56.3016 138.203 46.9921 138.295 38.7778C139.21 38.504 139.851 38.3214 140.676 38.3214C144.155 38.3214 146.078 42.4286 146.078 47.4484C146.078 53.8373 143.697 58.6746 140.401 58.6746Z" fill="#F3F2F0"></path>
  <path fill-rule="evenodd" clip-rule="evenodd" d="M87.9297 26.6387H60V28.099L61.5567 28.2816C63.6629 28.5554 64.3955 29.8332 64.7618 32.8451C65.2196 38.5038 65.0365 48.8173 64.7618 53.7459C64.4871 56.7578 63.6629 58.1268 61.5567 58.3094L60 58.5832V59.861H77.9482V58.5832L76.0252 58.3094C73.919 58.1268 73.1865 56.7578 72.8202 53.7459C72.637 51.6467 72.5455 48.361 72.5455 44.2538L76.3915 44.4363C78.7724 44.4363 79.8713 46.353 80.3291 48.9998H81.7943V37.6824H80.3291C79.8713 40.3292 78.7724 42.2459 76.3915 42.2459L72.5455 42.4284C72.5455 37.0435 72.7286 32.0237 72.8202 29.0117H78.4061C82.71 29.0117 84.9078 31.6586 86.4645 36.4046L88.0212 35.9483L87.9297 26.6387Z" fill="#F3F2F0"></path>
  <path fill-rule="evenodd" clip-rule="evenodd" d="M96.9038 35.4921C104.871 35.4921 108.808 40.877 108.808 47.9961C108.808 54.7501 104.413 60.5001 96.4459 60.5001C88.4791 60.5001 84.5415 55.1151 84.5415 47.9961C84.5415 41.1509 89.0285 35.4921 96.9038 35.4921ZM96.4459 37.0437C92.9662 37.0437 92.0504 41.7897 92.0504 47.9048C92.0504 53.9286 93.6072 58.7659 96.8122 58.7659C100.475 58.7659 101.391 54.0199 101.391 47.9048C101.391 41.9723 99.8341 37.0437 96.4459 37.0437Z" fill="#F3F2F0"></path>
  <path fill-rule="evenodd" clip-rule="evenodd" d="M155.602 48.0874C155.602 41.6073 159.723 35.4009 167.781 35.4009C174.466 35.4009 177.579 40.3295 177.579 46.8096H162.836C162.653 52.6509 165.492 56.9406 171.261 56.9406C173.825 56.9406 175.107 56.3017 176.664 55.2065L177.305 56.0279C175.748 58.2184 172.268 60.4089 167.781 60.4089C160.73 60.5001 155.602 55.389 155.602 48.0874ZM162.928 45.1668L170.345 44.9843C170.345 41.7898 169.887 37.0438 167.14 37.0438C164.484 37.0438 163.111 41.516 162.928 45.1668Z" fill="#F3F2F0"></path>
  <path fill-rule="evenodd" clip-rule="evenodd" d="M196.535 36.7699C194.612 35.9485 192.139 35.4921 189.209 35.4921C183.348 35.4921 179.685 38.9604 179.685 43.0675C179.685 47.1747 182.341 48.9088 186.187 50.1866C190.125 51.6469 191.224 52.7421 191.224 54.5675C191.224 56.4842 189.758 58.2183 187.286 58.2183C184.264 58.2183 182.066 56.4842 180.326 51.7382L179.228 52.012L179.411 58.9485C181.334 59.7699 184.814 60.4088 187.835 60.4088C194.062 60.4088 198 57.2143 198 52.377C198 49.0913 196.26 47.1747 192.139 45.6231C187.744 43.889 186.096 42.7937 186.096 40.6945C186.096 38.5953 187.561 37.2262 189.392 37.2262C192.231 37.2262 194.154 38.9604 195.619 43.2501L196.718 42.9763L196.535 36.7699Z" fill="#F3F2F0"></path>
  <path fill-rule="evenodd" clip-rule="evenodd" d="M129.412 36.1311C126.756 34.5795 121.995 35.3097 119.431 41.0597L119.614 35.4922L108.991 37.5914V38.5041L110.09 38.6867C111.555 38.8692 112.196 39.5994 112.288 41.6986C112.563 45.5319 112.471 52.1033 112.288 55.4803C112.105 57.397 111.464 58.3097 110.09 58.4922L108.991 58.6748V59.9525H123.735V58.6748L121.812 58.4922C120.255 58.3097 119.705 57.397 119.614 55.4803C119.339 52.4684 119.339 46.4446 119.431 42.7025C120.255 41.6073 123.735 40.6033 126.848 42.7025L129.412 36.1311Z" fill="#F3F2F0"></path>
</svg>
