<?xml version="1.0" encoding="UTF-8"?>
<svg xmlns="http://www.w3.org/2000/svg" width="267" height="88" viewBox="0 0 267 88" fill="none">
  <g clip-path="url(#clip0_395_278)">
    <path d="M93.366 45.4306L95.9066 44.1025V24.2302H93.9638L89.2313 30.428H88.6833L89.032 23.4432H109.556L109.855 30.428H109.307L104.624 24.2302H102.632V44.0533L105.222 45.3814V46.0701H93.366V45.4306ZM111.848 44.5452V22.5086L109.855 21.7216V21.3281L117.029 20H117.826V30.4772L117.975 30.3297C119.719 28.9032 121.861 28.067 124.152 28.067C127.291 28.067 128.686 29.8378 128.686 33.0842V44.5452L130.379 45.4306V46.0701H120.964V45.4306L122.658 44.5452V33.035C122.658 31.2151 121.861 30.5264 120.366 30.5264C119.47 30.5264 118.573 30.7724 117.876 31.3134V44.5452L119.519 45.4306V46.0701H110.104V45.4798L111.848 44.5452ZM135.51 37.7572C135.71 41.3971 137.354 44.2009 141.289 44.2009C143.182 44.2009 144.527 43.3155 145.773 42.6761V43.4139C144.079 45.4798 141.538 46.6112 138.848 46.6112C132.771 46.6112 129.682 43.2663 129.682 37.5112C129.682 31.8545 133.069 28.3621 138.549 28.3621C143.73 28.3621 146.37 30.9199 146.37 37.6096V37.7572H135.51ZM135.411 36.921L140.741 36.5766C140.741 32.0513 139.944 29.0507 138.4 29.0507C136.706 29.0999 135.411 32.5923 135.411 36.921ZM59.9893 54.8749C59.9893 45.2831 66.4155 41.889 73.589 41.889C76.6278 41.889 79.5172 42.3809 81.1113 43.0204L81.2607 49.7101H80.5633L76.3787 43.2171C75.5319 42.8728 74.6352 42.7252 73.7385 42.7744C69.9525 42.7744 67.9598 47.103 68.0595 54.2354C68.1093 62.7451 69.6536 66.631 73.1407 66.631C73.8381 66.631 74.5854 66.5326 75.233 66.2867V57.1868L72.8418 55.9078V55.1208H84.0006V55.957L81.7091 57.2359V66.2375C79.019 67.1721 76.1795 67.664 73.2901 67.664C65.1701 67.6148 59.9893 63.8764 59.9893 54.8749ZM82.9545 50.3987V49.8576L90.4269 48.5295L91.2737 48.5787V63.1386C91.2737 64.9094 92.1206 65.4505 93.5653 65.4505C94.5118 65.4505 95.4085 65.057 96.0063 64.3191V51.2841L93.914 50.3987V49.8084L101.386 48.5295L102.134 48.5787V65.3029L104.176 66.1391V66.6802L96.8531 67.5656L96.1059 67.5164V65.3029H95.9066C94.4122 66.7786 92.4195 67.5656 90.2774 67.6148C86.6907 67.6148 85.0467 65.4997 85.0467 62.3516V51.2841L82.9545 50.3987ZM129.931 48.5295L130.529 48.5787V53.9895H130.678C131.475 50.0544 133.219 48.5787 135.411 48.5787C135.71 48.5787 136.058 48.6279 136.357 48.7263V54.1862C135.859 54.0879 135.311 54.0387 134.813 54.0387C133.418 53.9895 132.023 54.2846 130.728 54.8257V65.4997L132.422 66.4343V67.2213H122.708V66.4835L124.451 65.5489V50.989L122.409 50.3987V49.9068L129.931 48.5295ZM148.712 48.9722V43.2663L146.669 42.5777V42.135L154.241 40.7577L154.939 40.8561V65.3029L157.031 66.0407V66.6802L149.559 67.664L148.961 67.6148V65.5981H148.811C147.516 66.9261 145.723 67.7132 143.83 67.664C139.745 67.664 136.806 64.6143 136.806 58.3181C136.806 51.6776 140.243 48.4311 145.474 48.4311C146.57 48.382 147.666 48.5787 148.712 48.9722ZM148.712 64.6143V50.0052C148.164 49.5133 147.416 49.3165 146.669 49.3657C144.627 49.4149 143.381 52.4646 143.381 57.8262C143.381 62.6467 144.278 65.3521 146.968 65.2537C147.616 65.2537 148.214 65.057 148.712 64.6143ZM165.201 48.5295L165.848 48.5787V65.5489L167.542 66.4835V67.2213H157.828V66.4835L159.572 65.5489V51.2349L157.479 50.3987V49.8084L165.201 48.5295ZM165.898 43.955C165.848 45.7258 164.354 47.103 162.561 47.0539C161.365 47.103 160.269 46.5128 159.671 45.529C159.073 44.5452 159.073 43.3155 159.671 42.2825C160.269 41.2988 161.365 40.7085 162.561 40.7577C164.404 40.7085 165.898 42.135 165.898 43.955ZM187.718 65.5489V51.0873L185.675 50.3987V49.7101L193.148 48.3328L193.895 48.382V50.5463H194.094C195.887 49.0706 198.129 48.2344 200.471 48.2344C203.709 48.2344 205.153 49.7592 205.153 53.1533V65.5489L206.897 66.5326V67.2213H197.183V66.4835L198.926 65.5489V53.4484C198.926 51.5792 198.129 50.8414 196.585 50.8414C195.638 50.7922 194.742 51.0873 194.044 51.6284V65.4997L195.738 66.4343V67.2213H186.024V66.4835L187.718 65.5489ZM177.157 56.4489V54.0387C177.157 50.3987 176.36 49.2182 174.068 49.2182C173.819 49.2182 173.57 49.2674 173.271 49.2674L169.186 54.7273H168.638V49.7101C170.83 48.9722 173.122 48.5787 175.463 48.5295C180.445 48.5295 183.334 49.9068 183.334 53.9895V65.7948L185.127 66.2375V66.7294C183.981 67.3197 182.736 67.5656 181.441 67.5656C179 67.5656 177.804 66.7786 177.256 65.4505H177.107C176.061 66.8278 174.566 67.6148 172.275 67.6148C169.336 67.6148 167.293 65.7948 167.293 62.6467C167.293 59.597 169.236 57.9246 173.122 57.1868L177.157 56.4489ZM177.157 64.6143V57.3343L175.911 57.4327C173.968 57.5803 173.271 58.81 173.271 61.5646C173.271 64.5159 174.267 65.3029 175.612 65.3029C176.21 65.3029 176.758 65.1062 177.157 64.6143ZM114.09 56.4489V54.0387C114.09 50.3987 113.292 49.2182 111.001 49.2182C110.752 49.2182 110.503 49.2674 110.204 49.2674L106.119 54.7273H105.571V49.7101C107.763 48.9722 110.054 48.5787 112.396 48.5295C117.377 48.5295 120.267 49.9068 120.267 53.9895V65.7948L122.06 66.2375V66.7294C120.914 67.3197 119.669 67.5656 118.374 67.5656C115.933 67.5656 114.737 66.7786 114.189 65.4505H114.04C112.994 66.8278 111.499 67.6148 109.208 67.6148C106.268 67.6148 104.226 65.7948 104.226 62.6467C104.226 59.597 106.119 57.9246 110.054 57.1868L114.09 56.4489ZM114.09 64.6143V57.3343L112.844 57.4327C110.901 57.5803 110.204 58.81 110.204 61.5646C110.204 64.5159 111.2 65.3029 112.545 65.3029C113.093 65.3029 113.691 65.1062 114.09 64.6143Z" fill="#F3F2F0"></path>
  </g>
  <defs>
    <clipPath id="clip0_395_278">
      <rect width="147" height="48" fill="white" transform="translate(60 20)"></rect>
    </clipPath>
  </defs>
</svg>
