<?xml version="1.0" encoding="UTF-8"?>
<svg xmlns="http://www.w3.org/2000/svg" width="326" height="88" viewBox="0 0 326 88" fill="none">
  <path d="M60 23H101.1C101.1 36.9829 101.1 51.0171 101.1 65H60V23ZM63.0236 29.6073C64.8685 38.1098 66.5084 46.7146 68.2508 55.2683C68.5582 56.2927 68.3532 57.6244 69.3782 58.3415C71.1718 58.6488 73.0167 58.5463 74.8104 58.4439C75.784 58.4951 76.0403 57.3171 76.194 56.5488C77.4239 50.4537 78.7564 44.4098 79.9863 38.3146C80.0888 37.7512 80.2425 37.1878 80.4988 36.6756C82.0362 43.2317 83.3173 49.7878 84.701 56.3439C84.906 57.061 84.9572 57.8805 85.6235 58.3415C87.5708 58.5976 89.5695 58.5976 91.5168 58.3415C92.2343 57.9317 92.2343 57.061 92.4393 56.3439C94.2329 47.4317 95.9241 38.4683 97.8202 29.5561C96.0778 29.5561 94.3867 29.5561 92.6443 29.5561C91.2606 37.3415 90.1844 45.1268 88.647 52.861C86.9559 46.3049 85.7772 39.5951 84.291 32.9366C83.9323 31.8098 84.086 30.1707 82.8561 29.5561C81.3187 29.4537 79.8325 29.4537 78.2951 29.5561C77.4239 29.6073 77.219 30.6317 77.0652 31.2976C75.8865 37.9561 74.4516 44.5122 73.1192 51.0683C72.9655 51.6829 72.7605 52.2463 72.5555 52.861C71.1718 45.1268 69.8907 37.3415 68.6607 29.6073C66.7646 29.6073 64.9197 29.6073 63.0236 29.6073Z" fill="#F3F2F0"></path>
  <path d="M141.892 23H182.993C182.993 36.9829 182.993 51.0171 182.993 65H141.892C141.892 51.0171 141.892 36.9829 141.892 23ZM151.168 29.6073C151.168 39.2366 151.168 48.8146 151.168 58.3927C153.064 58.3927 154.96 58.3927 156.857 58.3927C156.857 54.6537 156.857 50.8634 156.857 47.1244C159.931 47.1244 163.057 47.1244 166.132 47.1244C167.26 47.0219 168.592 47.8415 168.592 49.0707C168.746 52.1951 169.002 55.2683 169.207 58.3927C171.001 58.3927 172.846 58.3927 174.639 58.3927C174.127 54.8585 174.742 51.222 173.768 47.7902C173.256 45.9976 171.257 45.5878 169.72 45.1268C170.898 44.5122 172.384 44.461 173.204 43.3341C174.434 41.7976 174.537 39.7488 174.537 37.8537C174.537 35.6512 174.588 33.2439 173.153 31.4C172.026 29.8634 169.925 29.6585 168.182 29.6585C162.443 29.6073 156.805 29.6073 151.168 29.6073Z" fill="#F3F2F0"></path>
  <path d="M223.888 23H265.5V65H223.888C223.888 51.0171 223.888 36.9829 223.888 23ZM233.163 29.6073C233.163 39.2366 233.163 48.8146 233.163 58.3927C237.98 58.3927 242.746 58.3927 247.512 58.3927C250.485 58.3415 253.918 57.778 255.661 55.1659C257.762 51.8366 257.403 47.7902 257.813 44.0512C257.454 40.3122 257.762 36.2146 255.661 32.8854C254.021 30.4268 250.843 29.761 248.076 29.6585C243.105 29.5561 238.134 29.6073 233.163 29.6073Z" fill="#F3F2F0"></path>
  <path d="M111.554 29.3C118.165 29.3 124.776 29.3 131.438 29.3C131.438 31.0415 131.438 32.7317 131.438 34.4732C129.081 34.4732 126.775 34.4732 124.417 34.4732C124.417 40.8244 124.417 47.1756 124.417 53.5268C126.775 53.5268 129.081 53.5268 131.438 53.5268C131.438 55.2171 131.438 56.9585 131.438 58.7C124.827 58.7 118.216 58.7 111.554 58.7C111.503 56.9585 111.503 55.2683 111.554 53.5268C113.912 53.5268 116.218 53.5268 118.575 53.5268C118.575 47.1756 118.575 40.8244 118.575 34.4732C116.218 34.4732 113.912 34.4732 111.554 34.4732C111.554 32.7317 111.554 31.0415 111.554 29.3Z" fill="#F3F2F0"></path>
  <path d="M190.321 29.3C198.418 29.2488 206.566 29.2488 214.663 29.3C214.663 32.4756 214.663 35.6512 214.663 38.8781C212.921 38.8781 211.127 38.8781 209.385 38.8781C209.385 37.3927 209.385 35.9586 209.385 34.4732C206.207 34.4732 203.03 34.4732 199.853 34.4732C199.853 36.6756 199.853 38.8781 199.853 41.0805C202.415 41.0805 204.977 41.0805 207.54 41.0805C207.54 42.7195 207.54 44.3586 207.54 45.9976C204.977 45.9976 202.415 45.9976 199.853 45.9976C199.853 48.5073 199.853 51.0171 199.853 53.5268C203.133 53.4756 206.361 53.5268 209.641 53.5268C209.641 51.8366 209.641 50.1976 209.641 48.5073C211.435 48.5073 213.228 48.5073 215.022 48.5073C215.022 51.8878 215.022 55.3195 215.022 58.7C206.771 58.7 198.572 58.7 190.321 58.7C190.27 56.9586 190.321 55.2683 190.321 53.5268C191.653 53.5268 192.934 53.5268 194.216 53.5268C194.216 47.1756 194.216 40.8244 194.216 34.4732C192.934 34.4732 191.602 34.4732 190.321 34.4732C190.321 32.7317 190.321 31.0415 190.321 29.3Z" fill="#F3F2F0"></path>
  <path d="M156.857 34.3195C160.495 34.3707 164.185 34.2171 167.824 34.3707C169.259 35.3439 168.951 37.3927 169.002 38.878C168.951 40.261 168.9 42.4634 167.055 42.5658C163.673 42.7195 160.239 42.5658 156.806 42.6171C156.857 39.9024 156.857 37.0854 156.857 34.3195Z" fill="#F3F2F0"></path>
  <path d="M238.852 34.3195C241.927 34.3195 245.053 34.3195 248.127 34.3195C249.511 34.3195 251.1 34.9854 251.51 36.3683C252.483 39.1341 252.073 42.1561 252.176 45.0244C252.073 47.3293 252.33 49.7366 251.356 51.8878C250.69 53.2707 248.999 53.6293 247.615 53.6293C244.694 53.6293 241.773 53.6293 238.852 53.6293C238.852 47.2268 238.852 40.7732 238.852 34.3195Z" fill="#F3F2F0"></path>
</svg>
